:SAMPLES-PER-SECOND 30
:FULLY-SPECIFIED
:DEGREES
1912
root  43.0307 34.6494 5.01337 -101.405 -84.6776 100.796
RightUpLeg  -7.37942 -5.8081 -26.7359
RightLeg  48.4233 -4.40251 -5.63767
RightFoot  -17.0672 0.991152 21.8725
RightToes  -1.81608e-008 0 -3.6325e-017
Spine  19.5143 0.434869 -6.26295
Spine1  -6.36347 -0.692159 -2.5052
HEad  -22.7475 4.8205 -9.10152
LeftShoulder1  -0.388609 4.94482 -20.4497
LeftArm  -14.0121 -4.97438 -46.2969
LeftForeArm  27.6696 -75.0395 -46.47
LeftHand  -0.0966689 6.61597 -5.14477
RightShoulder  -0.328757 -4.64261 21.8077
RightArm  -6.79519 6.11047 33.3371
RightForeArm  29.0108 77.3568 67.5521
RightHand  -0.0638282 0.531443 -1.31552
LeftUpLeg  -17.0344 18.0927 20.1568
LeftLeg  6.19435 7.25361 -0.668224
LeftFoot  17.8825 5.23269 -20.3353
LeftToes  1.81866e-011 -6.13092e-011 2.52013e-011
1913
root  42.0899 35.2379 5.76859 -84.5332 -86.6274 84.312
RightUpLeg  -7.53025 -5.77286 -25.6766
RightLeg  49.0149 -5.08332 -6.58109
RightFoot  -6.64379 -0.894899 21.357
RightToes  -1.81608e-008 0 -3.6325e-017
Spine  18.6021 0.639936 -6.76788
Spine1  -6.58262 -0.68667 -0.889203
HEad  -22.0186 3.93448 -8.28654
LeftShoulder1  -0.354522 4.83183 -20.1575
LeftArm  -12.3372 -4.97858 -46.5997
LeftForeArm  27.5902 -75.0356 -46.474
LeftHand  -0.0849994 6.76663 -3.64977
RightShoulder  -0.390153 -4.84319 22.1433
RightArm  -6.99974 3.12999 32.7143
RightForeArm  32.5222 77.6292 70.737
RightHand  -0.0730578 0.343484 -1.49186
LeftUpLeg  -16.8101 18.5003 20.6258
LeftLeg  6.81599 5.47879 -0.938
LeftFoot  15.9807 5.04236 -20.94
LeftToes  1.81866e-011 -6.13092e-011 2.52013e-011
1914
root  41.2359 35.8168 6.45068 -51.2722 -87.5659 51.2344
RightUpLeg  -8.6297 -7.58112 -25.1819
RightLeg  50.1878 -5.23198 -7.03821
RightFoot  5.90385 -2.45148 16.6305
RightToes  -1.81608e-008 0 -3.6325e-017
Spine  18.4382 0.515667 -7.10197
Spine1  -7.19501 -0.879772 -0.19124
HEad  -20.553 2.58907 -7.07358
LeftShoulder1  -0.321598 4.73354 -19.5813
LeftArm  -11.4021 -4.94292 -46.7396
LeftForeArm  27.6808 -75.0201 -46.3591
LeftHand  -0.0732317 6.42085 -3.76109
RightShoulder  -0.49507 -5.1531 23.1659
RightArm  -6.90795 1.26948 32.0094
RightForeArm  35.1394 77.779 72.4279
RightHand  -0.0225057 -0.326712 -0.490933
LeftUpLeg  -16.1141 18.3582 20.7102
LeftLeg  6.65305 3.86476 -0.995199
LeftFoot  14.7733 4.44618 -19.4107
LeftToes  1.81866e-011 -6.13092e-011 2.52013e-011
1915
root  40.4886 36.2395 6.95263 -13.8549 -87.6651 14.2207
RightUpLeg  -10.7107 -9.90703 -24.581
RightLeg  51.2865 -2.6014 -3.81989
RightFoot  13.5758 -2.56509 11.8239
RightToes  -1.81608e-008 0 -3.6325e-017
Spine  18.644 0.679615 -7.89288
Spine1  -8.22512 -0.892869 0.731949
HEad  -19.293 1.06168 -6.18555
LeftShoulder1  -0.302063 4.67741 -19.1396
LeftArm  -10.7889 -5.11059 -46.9391
LeftForeArm  28.559 -75.1192 -46.6337
LeftHand  -0.0841663 6.55096 -4.34969
RightShoulder  -0.560449 -5.33889 23.7595
RightArm  -6.77075 -0.0731129 31.4083
RightForeArm  36.5396 77.8821 74.4219
RightHand  -0.0499453 0.0537928 -1.07542
LeftUpLeg  -15.4851 18.314 21.0612
LeftLeg  6.40619 3.03907 -0.883158
LeftFoot  13.4997 4.15507 -19.0986
LeftToes  1.81866e-011 -6.13092e-011 2.52013e-011
1916
root  39.7862 36.5383 7.28681 26.7025 -87.9607 -25.5569
RightUpLeg  -13.6978 -10.7667 -22.8137
RightLeg  51.6331 2.97987 3.65889
RightFoot  10.1434 -2.51 13.5834
RightToes  -1.81608e-008 0 -3.6325e-017
Spine  18.3366 1.05357 -8.67863
Spine1  -8.79599 -0.624216 1.56904
HEad  -19.5441 0.740723 -5.46545
LeftShoulder1  -0.32394 4.76669 -19.0537
LeftArm  -10.7467 -5.252 -46.8542
LeftForeArm  30.1443 -75.5388 -48.5823
LeftHand  -0.0987526 7.03911 -3.86845
RightShoulder  -0.482736 -5.10771 23.2531
RightArm  -6.94251 -0.932625 31.9735
RightForeArm  36.2373 77.8626 74.0906
RightHand  -0.0478287 0.462642 -0.996722
LeftUpLeg  -14.8681 19.0877 22.2936
LeftLeg  6.5209 2.7568 -1.05042
LeftFoot  11.9086 3.95807 -19.4359
LeftToes  1.81866e-011 -6.13092e-011 2.52013e-011
1917
root  39.13 36.7496 7.52227 74.4666 -87.9327 -72.1571
RightUpLeg  -17.8167 -11.7429 -20.5724
RightLeg  51.0743 3.82101 4.72062
RightFoot  7.14807 -2.61598 16.2617
RightToes  -1.81608e-008 0 -3.6325e-017
Spine  17.5628 1.42874 -9.37555
Spine1  -9.01788 -0.184873 1.89167
HEad  -21.1208 1.92311 -5.0804
LeftShoulder1  -0.378395 5.0001 -18.6169
LeftArm  -11.2271 -5.58493 -47.0117
LeftForeArm  31.9438 -75.8813 -50.1784
LeftHand  -0.096785 6.95059 -3.97019
RightShoulder  -0.496642 -5.14684 23.3862
RightArm  -6.81911 -0.187825 32.3761
RightForeArm  34.3554 77.7258 71.6209
RightHand  -0.00395699 0.546339 -0.117064
LeftUpLeg  -14.5497 19.8669 23.5163
LeftLeg  7.05052 3.1822 -1.0649
LeftFoot  10.5057 3.74478 -19.5729
LeftToes  1.81866e-011 -6.13092e-011 2.52013e-011
